<svg xmlns="http://www.w3.org/2000/svg" viewBox="0 0 64 64" fill="none" stroke="#1a1a1a" stroke-width="2.2" stroke-linecap="round" stroke-linejoin="round">
  <ellipse cx="8" cy="14" rx="5" ry="3" />
  <path d="M3 14v28c0 2.2 2.2 4 5 4s5-1.8 5-4V14" />
  <ellipse cx="24" cy="14" rx="5" ry="3" />
  <path d="M19 14v28c0 2.2 2.2 4 5 4s5-1.8 5-4V14" />
  <ellipse cx="40" cy="14" rx="5" ry="3" />
  <path d="M35 14v28c0 2.2 2.2 4 5 4s5-1.8 5-4V14" />
  <ellipse cx="56" cy="14" rx="5" ry="3" />
  <path d="M51 14v28c0 2.2 2.2 4 5 4s5-1.8 5-4V14" />
  <line x1="18" y1="52" x2="46" y2="52" />
</svg>
