<svg xmlns="http://www.w3.org/2000/svg" viewBox="0 0 32 32" fill="none">
  <path
    fill="#000"
    d="M 6.5 5.8
       C 8.2 5    10.8 5.1  12.8 6.2
       C 14.4 7.1  15.2 8.6  15.5 10
       L 15.5 20.2
       C 15.8 22.5  17 24.2  19 24.6
       C 21 25    22.5 23.8  22.8 22
       C 23 20.2  22.2 18.5  20.2 18
       L 19.5 17.6
       C 17.8 18.4  16.2 18.2  15.4 17
       C 14.6 15.8  14.8 14.2  15.4 12.8
       L 15.6 10.2
       C 15.8 8.2  14.6 6.8  12.6 6.3
       C 10.6 5.8  8.2 6.2  6.8 7.2
       L 6.2 7.6   L 6.2 19.8
       C 5.9 22  4.6 23.6  2.4 23.9
       C 0.4 24.2  -0.6 22.6  -0.4 20.6
       C -0.2 18.8  1.2 17.4  3.2 17
       L 3.8 16.7
       C 5.2 17.4  6.4 17.2  7 16
       C 7.6 14.8  7.4 13.2  6.6 12.2
       L 6.2 7.4
       C 6 6.4  6.2 5.9  6.5 5.8
       Z"
  />
</svg>
